<?xml version="1.0" encoding="iso-8859-1"?>
<!-- Uploaded to: SVG Repo, www.svgrepo.com, Generator: SVG Repo Mixer Tools -->
<svg version="1.1" id="Layer_1" xmlns="http://www.w3.org/2000/svg" xmlns:xlink="http://www.w3.org/1999/xlink" 
	 viewBox="0 0 512 512" xml:space="preserve">
<polygon style="fill:#FFBA00;" points="451.111,0 256.003,0 235.105,283.308 256.003,512 451.111,512 "/>
<rect x="60.889" style="fill:#FDE09C;" width="195.103" height="512"/>
<rect x="240.329" y="45.442" style="fill:#4E4E4E;" width="31.347" height="54.173"/>
<g>
	<polygon style="fill:#E96700;" points="410.868,213.737 256.003,213.737 245.554,229.41 256.003,245.084 410.868,245.084 	"/>
	<polygon style="fill:#E96700;" points="410.868,267.635 256.003,267.635 245.554,283.308 256.003,298.982 410.868,298.982 	"/>
	<polygon style="fill:#E96700;" points="410.868,321.532 256.003,321.532 245.554,337.205 256.003,352.879 410.868,352.879 	"/>
	<polygon style="fill:#E96700;" points="410.868,375.43 256.003,375.43 245.554,391.103 256.003,406.777 410.868,406.777 	"/>
	<polygon style="fill:#E96700;" points="410.868,429.327 256.003,429.327 245.554,445 256.003,460.674 410.868,460.674 	"/>
</g>
<g>
	<rect x="101.138" y="213.734" style="fill:#FF8E00;" width="95.577" height="31.347"/>
	<rect x="101.138" y="267.63" style="fill:#FF8E00;" width="95.577" height="31.347"/>
	<rect x="101.138" y="321.536" style="fill:#FF8E00;" width="95.577" height="31.347"/>
	<rect x="101.138" y="375.432" style="fill:#FF8E00;" width="95.577" height="31.347"/>
	<rect x="101.138" y="429.328" style="fill:#FF8E00;" width="95.577" height="31.347"/>
	<rect x="229.055" y="213.734" style="fill:#FF8E00;" width="26.949" height="31.347"/>
	<rect x="229.055" y="267.63" style="fill:#FF8E00;" width="26.949" height="31.347"/>
	<rect x="229.055" y="321.536" style="fill:#FF8E00;" width="26.949" height="31.347"/>
	<rect x="229.055" y="375.432" style="fill:#FF8E00;" width="26.949" height="31.347"/>
	<rect x="229.055" y="429.328" style="fill:#FF8E00;" width="26.949" height="31.347"/>
</g>
<path style="fill:#BDBDBD;" d="M256.003,78.398l-20.898,76.187h97.085C332.189,112.507,298.08,78.398,256.003,78.398z"/>
<path style="fill:#E4E4E4;" d="M179.816,154.584h76.187V78.398C213.926,78.398,179.816,112.507,179.816,154.584z"/>
<polygon style="fill:#4E4E4E;" points="353.556,138.91 256.003,138.91 245.554,154.584 256.003,170.257 353.556,170.257 "/>
<rect x="158.451" y="138.909" style="fill:#7C7C7C;" width="97.552" height="31.347"/>
</svg>